<?xml version="1.0" standalone="no"?>
<!DOCTYPE svg PUBLIC "-//W3C//DTD SVG 20010904//EN"
 "http://www.w3.org/TR/2001/REC-SVG-20010904/DTD/svg10.dtd">
<svg version="1.0" xmlns="http://www.w3.org/2000/svg"
 width="1513.000000pt" height="1513.000000pt" viewBox="0 0 1513.000000 1513.000000"
 preserveAspectRatio="xMidYMid meet">
<metadata>
Created by potrace 1.11, written by Peter Selinger 2001-2013
</metadata>
<g transform="translate(0.000000,1513.000000) scale(0.100000,-0.100000)"
fill="#000000" stroke="none">
<path d="M7249 14366 c-2 -2 -54 -6 -114 -10 -61 -3 -146 -10 -190 -16 -44 -6
-100 -13 -125 -16 -114 -14 -370 -71 -490 -109 -382 -120 -637 -285 -725 -470
-18 -38 -35 -92 -39 -119 -3 -27 -7 -50 -9 -52 -3 -3 -88 -12 -187 -19 -47 -4
-101 -8 -120 -10 -19 -2 -75 -7 -125 -10 -49 -4 -126 -10 -170 -15 -44 -6
-111 -12 -150 -16 -38 -3 -77 -8 -85 -10 -8 -3 -44 -7 -80 -9 -36 -2 -79 -6
-95 -9 -17 -2 -64 -9 -105 -15 -116 -17 -292 -42 -320 -46 -32 -5 -197 -33
-230 -40 -14 -3 -50 -10 -80 -15 -248 -49 -529 -134 -657 -199 -149 -75 -202
-152 -162 -232 75 -149 549 -302 1249 -404 204 -29 304 -42 380 -50 30 -3 72
-8 93 -10 20 -3 54 -7 75 -10 20 -2 73 -7 117 -11 44 -3 87 -7 96 -9 8 -2 55
-6 105 -10 49 -3 103 -8 119 -10 17 -2 66 -7 110 -10 44 -3 107 -7 140 -10 33
-2 101 -7 150 -10 50 -3 126 -8 170 -11 44 -2 127 -7 185 -9 58 -3 146 -7 195
-10 191 -9 663 -23 857 -24 93 -1 97 -2 93 -22 -2 -12 -7 -47 -11 -78 -3 -31
-8 -58 -9 -61 -2 -3 -6 -30 -10 -60 -3 -30 -15 -120 -26 -200 -11 -80 -22
-163 -25 -185 -2 -22 -6 -51 -9 -65 -10 -67 -16 -109 -20 -150 -3 -25 -8 -56
-10 -70 -2 -14 -11 -79 -20 -145 -9 -66 -18 -131 -20 -145 -3 -14 -7 -50 -11
-80 -3 -30 -8 -64 -10 -75 -2 -11 -11 -74 -19 -140 -9 -66 -18 -127 -20 -135
-2 -8 -6 -42 -10 -75 -3 -33 -10 -85 -15 -115 -5 -30 -12 -77 -15 -105 -7 -59
-10 -83 -25 -190 -6 -44 -14 -96 -16 -115 -12 -82 -24 -153 -26 -155 -2 -1
-91 -55 -198 -120 -107 -64 -256 -155 -330 -200 -74 -45 -234 -142 -355 -215
-121 -73 -242 -147 -270 -164 -27 -18 -61 -37 -75 -44 -14 -7 -36 -21 -49 -31
l-24 -18 89 -55 c124 -76 506 -309 548 -333 42 -24 207 -124 841 -510 270
-164 506 -307 525 -317 19 -11 40 -25 47 -30 8 -7 37 5 95 40 96 57 524 316
918 557 151 92 289 175 305 185 39 22 580 350 666 404 37 22 74 46 83 51 13 8
-18 31 -165 120 -99 61 -193 117 -207 125 -15 8 -52 30 -82 49 -55 34 -519
316 -722 439 -60 35 -108 70 -109 76 0 6 -2 20 -5 31 -2 11 -6 40 -10 65 -3
25 -7 56 -9 70 -3 14 -7 48 -10 75 -3 28 -10 75 -15 105 -5 30 -12 78 -15 105
-3 28 -15 113 -26 190 -11 77 -22 156 -24 175 -8 71 -28 217 -50 365 -3 17
-11 84 -20 150 -20 153 -25 186 -30 205 -2 8 -7 46 -10 85 -4 38 -8 72 -10 75
-1 3 -6 32 -9 65 -4 33 -9 67 -11 75 -2 8 -6 38 -10 65 -3 28 -8 68 -11 90 -3
22 -7 54 -9 70 -2 17 -8 62 -14 101 -6 40 -13 96 -17 125 -3 30 -7 58 -8 62 0
5 51 10 114 12 350 10 582 17 635 20 33 2 119 6 190 10 213 10 410 22 495 30
19 2 78 6 130 10 52 4 111 8 130 10 19 2 73 6 119 10 47 4 92 8 100 10 9 1 52
6 96 9 44 4 91 9 105 11 14 2 57 6 95 10 39 4 78 9 87 10 9 2 43 6 75 10 32 3
69 8 83 10 14 2 77 11 140 20 63 8 126 17 140 19 634 107 952 197 1117 318
198 144 50 296 -417 428 -79 22 -158 43 -175 46 -16 2 -38 7 -47 10 -9 3 -27
7 -40 9 -13 3 -34 7 -48 10 -14 3 -34 7 -45 9 -21 4 -167 31 -220 41 -43 8
-173 26 -280 40 -22 3 -51 8 -65 10 -59 10 -89 14 -150 20 -36 4 -76 8 -90 10
-26 4 -92 11 -170 19 -197 21 -253 26 -305 30 -104 9 -188 16 -260 21 -104 8
-179 16 -184 20 -2 2 -6 26 -8 52 -7 64 -63 177 -116 233 -187 197 -510 342
-972 436 -22 4 -138 24 -170 29 -80 11 -108 15 -165 21 -36 4 -83 9 -105 11
-56 5 -572 13 -576 9z m622 -1539 c1 -18 2 -43 3 -57 2 -14 6 -63 10 -110 3
-47 11 -139 16 -205 6 -66 12 -149 15 -185 3 -36 7 -90 10 -120 14 -161 20
-243 30 -375 3 -44 8 -98 10 -120 2 -22 7 -78 10 -125 3 -47 8 -103 10 -125 3
-22 7 -74 10 -115 3 -41 8 -97 10 -125 2 -27 7 -86 10 -130 3 -44 7 -98 10
-120 3 -22 7 -76 10 -120 3 -44 7 -98 10 -120 2 -22 7 -76 10 -120 3 -44 8
-102 10 -130 3 -27 7 -81 10 -120 3 -38 7 -92 10 -120 2 -27 7 -86 10 -130 3
-44 7 -96 10 -115 2 -19 7 -73 10 -120 3 -47 8 -107 10 -135 11 -144 16 -203
20 -235 2 -19 7 -73 10 -120 3 -47 8 -100 10 -118 4 -29 0 -34 -28 -47 -36
-16 -328 -130 -452 -176 -44 -17 -88 -35 -98 -40 -15 -8 -82 15 -314 108
l-295 117 7 101 c4 55 8 111 10 125 2 14 6 63 10 110 3 47 7 101 10 120 2 19
7 73 10 120 4 47 8 108 10 135 3 28 7 84 10 125 3 41 8 95 10 120 3 25 7 81
10 125 3 44 8 100 10 125 6 59 12 135 25 305 6 77 13 156 15 175 2 19 7 76 10
125 4 50 8 106 10 125 2 19 6 76 10 125 3 50 8 101 10 115 2 14 7 66 10 115
10 143 13 186 19 255 8 84 14 157 21 250 3 41 7 95 10 120 2 25 7 81 10 125 3
44 8 100 10 125 3 25 7 81 10 125 3 44 7 98 10 120 2 22 7 81 11 130 8 99 11
139 13 142 1 0 134 1 296 1 l295 0 1 -31z"/>
<path d="M4955 8306 c-11 -7 -38 -24 -61 -37 -169 -98 -364 -223 -357 -229 12
-11 374 -230 379 -230 3 0 24 -13 47 -28 34 -23 523 -322 585 -357 9 -5 135
-82 280 -170 144 -88 275 -167 290 -176 68 -40 600 -363 627 -380 105 -68 610
-369 619 -369 10 0 14 89 20 455 l1 80 -160 97 c-88 54 -178 108 -200 121 -33
20 -217 131 -275 166 -8 5 -296 180 -640 389 -344 208 -733 445 -866 525 -132
81 -247 149 -255 152 -8 3 -23 -1 -34 -9z"/>
<path d="M10090 8291 c-25 -16 -184 -113 -355 -216 -170 -103 -368 -224 -440
-268 -71 -44 -146 -88 -165 -99 -19 -11 -147 -89 -285 -173 -451 -274 -625
-380 -643 -390 -9 -5 -124 -75 -254 -154 l-236 -143 3 -112 c2 -61 5 -182 7
-268 2 -87 6 -158 10 -158 4 0 69 38 145 84 76 47 189 115 252 153 62 37 125
75 140 84 14 9 143 87 286 174 143 87 306 186 363 221 57 35 106 64 109 64 3
0 19 10 36 23 18 12 41 27 52 33 11 6 139 84 285 172 458 279 520 317 538 327
10 6 78 47 152 92 366 221 492 300 492 309 1 8 -429 274 -442 274 -3 0 -25
-13 -50 -29z"/>
<path d="M3654 7618 c-143 -83 -349 -202 -459 -265 -110 -63 -206 -121 -213
-127 -13 -13 6 -26 182 -126 17 -9 141 -81 276 -160 264 -153 293 -170 343
-198 17 -11 142 -83 277 -162 135 -78 265 -154 289 -168 24 -13 180 -103 345
-200 166 -96 317 -184 336 -195 72 -40 728 -421 805 -467 44 -26 98 -58 120
-70 22 -12 153 -88 290 -168 138 -80 277 -161 310 -180 72 -42 46 -26 443
-257 178 -103 326 -184 330 -180 4 3 7 34 8 68 2 66 14 566 19 783 l3 132
-179 108 c-99 60 -192 116 -207 125 -15 9 -133 81 -262 159 -129 79 -247 150
-262 159 -15 9 -109 66 -210 127 -101 61 -309 188 -463 281 -154 93 -597 362
-985 598 -388 235 -717 435 -732 444 -15 9 -53 32 -86 52 l-60 37 -258 -150z"/>
<path d="M11049 7668 c-90 -55 -177 -108 -194 -118 -16 -9 -91 -54 -165 -100
-74 -45 -151 -92 -171 -104 -20 -11 -73 -43 -118 -71 -45 -27 -94 -57 -109
-66 -60 -35 -599 -362 -622 -377 -14 -9 -34 -22 -45 -28 -11 -6 -114 -68 -230
-139 -115 -70 -230 -140 -255 -155 -25 -15 -162 -98 -305 -185 -143 -87 -343
-208 -445 -270 -102 -61 -288 -175 -415 -252 l-230 -139 1 -125 c4 -346 18
-857 25 -864 3 -2 101 52 219 121 118 69 235 137 260 151 25 14 97 55 160 92
154 90 375 219 785 456 322 187 388 225 615 359 52 30 111 64 131 75 20 11
200 115 400 232 200 116 378 219 394 229 176 100 303 175 372 218 30 17 55 32
57 32 3 0 51 27 108 61 57 34 121 71 143 84 60 34 654 379 698 405 20 12 37
25 37 28 0 4 -43 32 -96 62 -53 30 -110 63 -127 74 -62 36 -282 164 -317 184
-19 10 -116 67 -216 124 l-181 105 -164 -99z"/>
<path d="M1990 6649 c-157 -100 -370 -236 -475 -302 -104 -66 -199 -127 -210
-134 -11 -8 -126 -81 -255 -163 -488 -309 -589 -373 -725 -459 -77 -49 -181
-116 -232 -147 -50 -32 -90 -61 -87 -65 3 -5 48 -36 102 -69 115 -73 377 -239
665 -423 114 -72 218 -139 232 -147 14 -8 67 -42 118 -74 50 -33 142 -91 202
-129 61 -38 126 -80 145 -92 61 -39 169 -108 385 -245 116 -73 239 -151 275
-174 36 -24 270 -172 520 -331 250 -159 501 -318 558 -354 57 -36 135 -87 175
-112 40 -25 138 -88 219 -140 81 -52 159 -101 173 -109 14 -8 64 -40 113 -71
48 -31 182 -116 297 -189 116 -73 239 -152 275 -175 36 -23 160 -102 275 -175
116 -73 243 -153 282 -179 40 -25 112 -71 160 -102 156 -100 902 -574 928
-589 21 -13 70 -44 318 -202 23 -15 66 -42 95 -60 86 -54 397 -252 547 -349
149 -95 164 -104 170 -97 4 4 17 412 30 1013 7 316 15 664 20 815 9 312 18
788 19 969 l1 194 -110 66 c-599 362 -984 596 -1005 610 -14 9 -51 33 -83 52
-77 45 -79 46 -172 103 -44 27 -93 57 -110 66 -16 10 -70 43 -120 73 -49 30
-153 93 -230 140 -77 46 -234 142 -350 212 -191 116 -301 183 -347 210 -10 5
-139 84 -288 175 -149 91 -283 172 -298 181 -15 9 -79 48 -142 86 -160 98
-666 405 -778 472 -50 31 -185 113 -300 182 -464 282 -691 419 -694 419 -2 0
-131 -82 -288 -181z"/>
<path d="M12695 6740 c-83 -49 -172 -104 -200 -121 -27 -17 -176 -107 -330
-200 -154 -93 -287 -173 -295 -178 -8 -6 -85 -52 -170 -104 -85 -52 -292 -177
-460 -279 -168 -102 -440 -267 -605 -368 -165 -100 -313 -190 -330 -200 -30
-17 -217 -131 -775 -470 -157 -95 -393 -238 -525 -318 -132 -80 -303 -184
-380 -231 -78 -47 -297 -180 -489 -296 l-348 -210 7 -300 c3 -165 8 -365 10
-445 2 -80 6 -255 10 -390 3 -135 8 -328 10 -430 3 -102 7 -284 10 -405 16
-716 25 -1018 29 -1023 4 -3 51 26 171 103 28 18 286 182 575 365 289 183 554
352 590 375 36 23 218 139 405 257 187 119 461 293 608 387 148 94 271 171
273 171 3 0 10 5 17 11 7 5 129 84 272 174 143 91 265 168 271 173 5 5 21 15
35 22 13 7 67 41 119 75 52 34 190 121 305 195 338 214 351 222 458 291 118
75 220 140 245 154 9 6 49 31 87 56 75 49 498 317 565 359 23 14 292 185 598
380 306 194 730 464 942 598 212 134 414 263 450 286 36 23 111 71 167 107 57
35 103 67 103 70 0 6 1 6 -315 206 -297 189 -473 301 -542 345 -32 20 -98 62
-148 93 -49 31 -244 153 -431 273 -188 119 -349 222 -358 227 -9 6 -58 37
-108 69 -324 208 -368 236 -371 236 -1 0 -70 -40 -152 -90z"/>
</g>
</svg>
