<?xml version="1.0" encoding="UTF-8" standalone="no"?>
<!DOCTYPE svg PUBLIC "-//W3C//DTD SVG 1.1//EN" "http://www.w3.org/Graphics/SVG/1.1/DTD/svg11.dtd">
<svg width="100%" height="100%" viewBox="0 0 679 276" version="1.1" xmlns="http://www.w3.org/2000/svg" xmlns:xlink="http://www.w3.org/1999/xlink" xml:space="preserve" style="fill-rule:evenodd;clip-rule:evenodd;stroke-linejoin:round;stroke-miterlimit:1.41421;">
    <g transform="matrix(1,0,0,1,-2.01287,-1.97997)">
        <g transform="matrix(1,0,0,1.01436,-83,79.0916)">
            <path d="M124.647,-20.77L112.983,-14.561C111.143,-18.324 108.865,-20.205 106.147,-20.205C104.851,-20.205 103.743,-19.777 102.823,-18.92C101.904,-18.063 101.444,-16.965 101.444,-15.627C101.444,-13.286 104.161,-10.966 109.596,-8.666C117.08,-5.447 122.118,-2.479 124.71,0.239C127.302,2.957 128.598,6.615 128.598,11.214C128.598,17.109 126.424,22.042 122.076,26.014C117.854,29.777 112.753,31.658 106.774,31.658C96.531,31.658 89.277,26.662 85.013,16.67L97.054,11.088C98.726,14.015 100.001,15.875 100.879,16.67C102.593,18.259 104.642,19.053 107.025,19.053C111.791,19.053 114.174,16.879 114.174,12.531C114.174,10.022 112.335,7.681 108.656,5.507C107.234,4.796 105.813,4.106 104.391,3.437C102.97,2.768 101.527,2.079 100.064,1.368C95.967,-0.639 93.082,-2.646 91.41,-4.653C89.277,-7.203 88.211,-10.485 88.211,-14.499C88.211,-19.808 90.03,-24.198 93.667,-27.668C97.388,-31.138 101.904,-32.873 107.213,-32.873C115.031,-32.873 120.843,-28.839 124.647,-20.77Z" style="fill-rule:nonzero;"/>
            <path d="M141.266,-76.02L155.377,-76.02L155.377,-26.1C160.394,-30.616 165.934,-32.873 171.996,-32.873C178.894,-32.873 184.413,-30.637 188.552,-26.163C192.064,-22.275 193.82,-16.066 193.82,-7.537L193.82,29.902L179.71,29.902L179.71,-6.22C179.71,-11.112 178.842,-14.655 177.107,-16.85C175.372,-19.045 172.581,-20.143 168.735,-20.143C163.801,-20.143 160.331,-18.617 158.324,-15.565C156.359,-12.471 155.377,-7.161 155.377,0.364L155.377,29.902L141.266,29.902L141.266,-76.02Z" style="fill-rule:nonzero;"/>
            <path d="M211.693,-31.18L225.804,-31.18L225.804,-25.724C228.396,-28.442 230.695,-30.302 232.702,-31.306C234.751,-32.351 237.176,-32.873 239.977,-32.873C243.698,-32.873 247.586,-31.661 251.641,-29.236L245.182,-16.317C242.506,-18.24 239.893,-19.202 237.343,-19.202C229.65,-19.202 225.804,-13.391 225.804,-1.768L225.804,29.902L211.693,29.902L211.693,-31.18Z" style="fill-rule:nonzero;"/>
            <path d="M275.786,-31.18L275.786,29.902L261.675,29.902L261.675,-31.18L275.786,-31.18ZM259.543,-56.579C259.543,-59.046 260.442,-61.178 262.24,-62.976C264.038,-64.773 266.191,-65.672 268.699,-65.672C271.25,-65.672 273.424,-64.773 275.221,-62.976C277.019,-61.22 277.918,-59.067 277.918,-56.516C277.918,-53.966 277.019,-51.792 275.221,-49.994C273.465,-48.196 271.312,-47.297 268.762,-47.297C266.212,-47.297 264.038,-48.196 262.24,-49.994C260.442,-51.792 259.543,-53.987 259.543,-56.579Z" style="fill-rule:nonzero;"/>
            <path d="M293.659,-31.18L307.832,-31.18L307.832,-25.536C312.766,-30.428 318.326,-32.873 324.514,-32.873C331.621,-32.873 337.161,-30.637 341.133,-26.163C344.561,-22.359 346.275,-16.15 346.275,-7.537L346.275,29.902L332.102,29.902L332.102,-4.214C332.102,-10.234 331.266,-14.394 329.594,-16.694C327.963,-19.035 324.995,-20.205 320.688,-20.205C316.006,-20.205 312.682,-18.659 310.717,-15.565C308.794,-12.513 307.832,-7.182 307.832,0.427L307.832,29.902L293.659,29.902L293.659,-31.18Z" style="fill-rule:nonzero;"/>
            <path d="M419.712,2.685L375.939,2.685C376.315,7.702 377.945,11.695 380.83,14.663C383.715,17.59 387.415,19.053 391.93,19.053C395.442,19.053 398.348,18.217 400.647,16.544C402.905,14.872 405.476,11.778 408.361,7.263L420.277,13.91C418.437,17.046 416.493,19.732 414.444,21.969C412.396,24.206 410.201,26.045 407.859,27.488C405.518,28.93 402.989,29.986 400.271,30.655C397.554,31.324 394.606,31.658 391.429,31.658C382.314,31.658 374.998,28.732 369.479,22.878C363.96,16.983 361.201,9.165 361.201,-0.576C361.201,-10.234 363.877,-18.052 369.228,-24.031C374.622,-29.926 381.771,-32.873 390.676,-32.873C399.665,-32.873 406.772,-30.01 411.999,-24.282C417.183,-18.596 419.775,-10.715 419.775,-0.639L419.712,2.685ZM405.226,-8.854C403.261,-16.38 398.515,-20.143 390.99,-20.143C389.276,-20.143 387.666,-19.881 386.161,-19.359C384.656,-18.836 383.286,-18.084 382.053,-17.101C380.82,-16.119 379.764,-14.938 378.886,-13.558C378.008,-12.178 377.339,-10.61 376.879,-8.854L405.226,-8.854Z" style="fill-rule:nonzero;"/>
            <path d="M144.778,134.947L101.005,134.947C101.381,139.964 103.012,143.956 105.896,146.925C108.781,149.851 112.481,151.315 116.997,151.315C120.508,151.315 123.414,150.478 125.714,148.806C127.971,147.134 130.543,144.04 133.427,139.525L145.343,146.172C143.503,149.308 141.559,151.994 139.51,154.231C137.462,156.468 135.267,158.307 132.926,159.75C130.584,161.192 128.055,162.248 125.337,162.917C122.62,163.586 119.672,163.92 116.495,163.92C107.381,163.92 100.064,160.993 94.545,155.14C89.026,149.245 86.267,141.427 86.267,131.685C86.267,122.028 88.943,114.209 94.294,108.231C99.688,102.336 106.837,99.388 115.742,99.388C124.731,99.388 131.839,102.252 137.065,107.98C142.249,113.666 144.841,121.547 144.841,131.623L144.778,134.947ZM130.292,123.407C128.327,115.882 123.581,112.119 116.056,112.119C114.342,112.119 112.732,112.38 111.227,112.903C109.722,113.426 108.353,114.178 107.119,115.161C105.886,116.143 104.83,117.324 103.952,118.704C103.074,120.084 102.405,121.651 101.945,123.407L130.292,123.407Z" style="fill-rule:nonzero;"/>
            <path d="M160.206,101.082L174.379,101.082L174.379,106.726C179.312,101.834 184.873,99.388 191.061,99.388C198.168,99.388 203.708,101.625 207.68,106.099C211.108,109.903 212.822,116.112 212.822,124.724L212.822,162.164L198.649,162.164L198.649,128.048C198.649,122.028 197.813,117.868 196.14,115.568C194.51,113.227 191.541,112.056 187.235,112.056C182.553,112.056 179.229,113.603 177.264,116.697C175.341,119.749 174.379,125.08 174.379,132.689L174.379,162.164L160.206,162.164L160.206,101.082Z" style="fill-rule:nonzero;"/>
            <path d="M289.708,160.722C289.708,163.606 289.614,166.146 289.426,168.341C289.238,170.536 288.977,172.47 288.642,174.142C287.639,178.741 285.674,182.692 282.747,185.995C277.228,192.35 269.64,195.527 259.982,195.527C251.829,195.527 245.119,193.332 239.851,188.942C234.416,184.427 231.281,178.177 230.444,170.191L244.618,170.191C245.161,173.202 246.06,175.522 247.314,177.152C250.241,180.957 254.505,182.859 260.108,182.859C270.434,182.859 275.598,176.525 275.598,163.857L275.598,155.328C269.995,161.056 263.536,163.92 256.219,163.92C247.899,163.92 241.085,160.91 235.775,154.889C230.423,148.785 227.748,141.155 227.748,131.999C227.748,123.094 230.235,115.526 235.211,109.297C240.562,102.691 247.628,99.388 256.408,99.388C264.1,99.388 270.497,102.252 275.598,107.98L275.598,101.082L289.708,101.082L289.708,160.722ZM276.162,131.748C276.162,125.811 274.573,121.066 271.396,117.512C268.177,113.875 264.059,112.056 259.041,112.056C253.69,112.056 249.467,114.042 246.373,118.014C243.572,121.568 242.172,126.167 242.172,131.811C242.172,137.371 243.572,141.929 246.373,145.482C249.425,149.371 253.648,151.315 259.041,151.315C264.435,151.315 268.699,149.35 271.835,145.42C274.72,141.866 276.162,137.309 276.162,131.748Z" style="fill-rule:nonzero;"/>
            <path d="M321.629,101.082L321.629,162.164L307.519,162.164L307.519,101.082L321.629,101.082ZM305.386,75.683C305.386,73.216 306.285,71.084 308.083,69.286C309.881,67.488 312.034,66.589 314.543,66.589C317.093,66.589 319.267,67.488 321.065,69.286C322.862,71.042 323.761,73.195 323.761,75.745C323.761,78.296 322.862,80.47 321.065,82.268C319.309,84.065 317.156,84.964 314.605,84.964C312.055,84.964 309.881,84.065 308.083,82.268C306.285,80.47 305.386,78.275 305.386,75.683Z" style="fill-rule:nonzero;"/>
            <path d="M339.502,101.082L353.675,101.082L353.675,106.726C358.609,101.834 364.169,99.388 370.357,99.388C377.465,99.388 383.004,101.625 386.976,106.099C390.404,109.903 392.119,116.112 392.119,124.724L392.119,162.164L377.945,162.164L377.945,128.048C377.945,122.028 377.109,117.868 375.437,115.568C373.806,113.227 370.838,112.056 366.532,112.056C361.849,112.056 358.525,113.603 356.56,116.697C354.637,119.749 353.675,125.08 353.675,132.689L353.675,162.164L339.502,162.164L339.502,101.082Z" style="fill-rule:nonzero;"/>
            <path d="M465.555,134.947L421.782,134.947C422.158,139.964 423.789,143.956 426.673,146.925C429.558,149.851 433.258,151.315 437.774,151.315C441.286,151.315 444.191,150.478 446.491,148.806C448.748,147.134 451.32,144.04 454.204,139.525L466.12,146.172C464.28,149.308 462.336,151.994 460.288,154.231C458.239,156.468 456.044,158.307 453.703,159.75C451.361,161.192 448.832,162.248 446.114,162.917C443.397,163.586 440.449,163.92 437.272,163.92C428.158,163.92 420.841,160.993 415.322,155.14C409.804,149.245 407.044,141.427 407.044,131.685C407.044,122.028 409.72,114.209 415.071,108.231C420.465,102.336 427.614,99.388 436.519,99.388C445.508,99.388 452.616,102.252 457.842,107.98C463.026,113.666 465.618,121.547 465.618,131.623L465.555,134.947ZM451.069,123.407C449.104,115.882 444.358,112.119 436.833,112.119C435.119,112.119 433.509,112.38 432.004,112.903C430.499,113.426 429.13,114.178 427.896,115.161C426.663,116.143 425.607,117.324 424.729,118.704C423.851,120.084 423.182,121.651 422.722,123.407L451.069,123.407Z" style="fill-rule:nonzero;"/>
            <path d="M536.609,134.947L492.836,134.947C493.212,139.964 494.842,143.956 497.727,146.925C500.612,149.851 504.312,151.315 508.827,151.315C512.339,151.315 515.245,150.478 517.545,148.806C519.802,147.134 522.373,144.04 525.258,139.525L537.174,146.172C535.334,149.308 533.39,151.994 531.341,154.231C529.293,156.468 527.098,158.307 524.757,159.75C522.415,161.192 519.886,162.248 517.168,162.917C514.451,163.586 511.503,163.92 508.326,163.92C499.211,163.92 491.895,160.993 486.376,155.14C480.857,149.245 478.098,141.427 478.098,131.685C478.098,122.028 480.774,114.209 486.125,108.231C491.519,102.336 498.668,99.388 507.573,99.388C516.562,99.388 523.67,102.252 528.896,107.98C534.08,113.666 536.672,121.547 536.672,131.623L536.609,134.947ZM522.123,123.407C520.158,115.882 515.412,112.119 507.887,112.119C506.173,112.119 504.563,112.38 503.058,112.903C501.553,113.426 500.184,114.178 498.95,115.161C497.717,116.143 496.661,117.324 495.783,118.704C494.905,120.084 494.236,121.651 493.776,123.407L522.123,123.407Z" style="fill-rule:nonzero;"/>
            <path d="M552.037,101.082L566.147,101.082L566.147,106.538C568.739,103.82 571.039,101.96 573.046,100.956C575.094,99.911 577.519,99.388 580.32,99.388C584.041,99.388 587.929,100.601 591.985,103.026L585.525,115.945C582.85,114.021 580.237,113.06 577.686,113.06C569.994,113.06 566.147,118.871 566.147,130.494L566.147,162.164L552.037,162.164L552.037,101.082Z" style="fill-rule:nonzero;"/>
            <path d="M616.129,101.082L616.129,162.164L602.019,162.164L602.019,101.082L616.129,101.082ZM599.887,75.683C599.887,73.216 600.786,71.084 602.583,69.286C604.381,67.488 606.534,66.589 609.043,66.589C611.593,66.589 613.767,67.488 615.565,69.286C617.363,71.042 618.262,73.195 618.262,75.745C618.262,78.296 617.363,80.47 615.565,82.268C613.809,84.065 611.656,84.964 609.106,84.964C606.555,84.964 604.381,84.065 602.583,82.268C600.786,80.47 599.887,78.275 599.887,75.683Z" style="fill-rule:nonzero;"/>
            <path d="M634.003,101.082L648.176,101.082L648.176,106.726C653.109,101.834 658.67,99.388 664.857,99.388C671.965,99.388 677.505,101.625 681.476,106.099C684.905,109.903 686.619,116.112 686.619,124.724L686.619,162.164L672.446,162.164L672.446,128.048C672.446,122.028 671.61,117.868 669.937,115.568C668.307,113.227 665.338,112.056 661.032,112.056C656.349,112.056 653.026,113.603 651.061,116.697C649.137,119.749 648.176,125.08 648.176,132.689L648.176,162.164L634.003,162.164L634.003,101.082Z" style="fill-rule:nonzero;"/>
            <path d="M763.505,160.722C763.505,163.606 763.411,166.146 763.223,168.341C763.035,170.536 762.773,172.47 762.439,174.142C761.435,178.741 759.47,182.692 756.544,185.995C751.025,192.35 743.437,195.527 733.779,195.527C725.626,195.527 718.916,193.332 713.648,188.942C708.213,184.427 705.077,178.177 704.241,170.191L718.414,170.191C718.958,173.202 719.857,175.522 721.111,177.152C724.038,180.957 728.302,182.859 733.904,182.859C744.231,182.859 749.395,176.525 749.395,163.857L749.395,155.328C743.792,161.056 737.333,163.92 730.016,163.92C721.696,163.92 714.882,160.91 709.572,154.889C704.22,148.785 701.545,141.155 701.545,131.999C701.545,123.094 704.032,115.526 709.007,109.297C714.359,102.691 721.425,99.388 730.204,99.388C737.897,99.388 744.294,102.252 749.395,107.98L749.395,101.082L763.505,101.082L763.505,160.722ZM749.959,131.748C749.959,125.811 748.37,121.066 745.193,117.512C741.974,113.875 737.855,112.056 732.838,112.056C727.487,112.056 723.264,114.042 720.17,118.014C717.369,121.568 715.969,126.167 715.969,131.811C715.969,137.371 717.369,141.929 720.17,145.482C723.222,149.371 727.445,151.315 732.838,151.315C738.232,151.315 742.496,149.35 745.632,145.42C748.517,141.866 749.959,137.309 749.959,131.748Z" style="fill-rule:nonzero;"/>
        </g>
    </g>
</svg>
