<?xml version="1.0" encoding="UTF-8" standalone="no"?>
<!DOCTYPE svg PUBLIC "-//W3C//DTD SVG 1.1//EN" "http://www.w3.org/Graphics/SVG/1.1/DTD/svg11.dtd">
<svg width="100%" height="100%" viewBox="0 0 1513 1361" version="1.1" xmlns="http://www.w3.org/2000/svg" xmlns:xlink="http://www.w3.org/1999/xlink" xml:space="preserve" style="fill-rule:evenodd;clip-rule:evenodd;stroke-linecap:round;stroke-linejoin:round;stroke-miterlimit:1.5;">
    <g transform="matrix(1,0,0,1,-562.796,-45.5)">
        <path d="M1342.05,1106.48L1847.34,799.913L2074.73,944.369L1349.27,1405.24L1342.05,1106.48ZM1293.51,1104.98L1286.29,1403.68L563.296,944.369L790.684,799.913L1293.51,1104.98ZM1337.46,916.623L1684.12,706.304L1777.93,760.759L1339.84,1015.06L1337.46,916.623ZM1298.1,915.127L1295.72,1013.62L860.102,760.759L953.913,706.304L1298.1,915.127ZM1334.59,797.963L1577,650.894L1621.65,677.984L1335.88,851.36L1334.59,797.963ZM1300.97,796.467L1299.68,849.864L1016.38,677.984L1061.03,650.894L1300.97,796.467ZM1119.46,125.947C1119.42,125.282 1119.4,124.616 1119.4,123.947C1119.4,80.927 1204.25,46 1308.77,46C1413.28,46 1498.13,80.927 1498.13,123.947C1498.13,124.616 1498.11,125.283 1498.07,125.947C1650.83,136.252 1756.78,158.636 1756.78,184.562C1756.78,217.619 1584.53,244.916 1362.62,248.761L1395.21,486.424L1524.9,565.109L1319.01,690.024L1113.12,565.109L1243.58,485.962L1276.06,249.054C1044.04,246.634 860.744,218.663 860.744,184.562C860.744,158.635 966.695,136.252 1119.46,125.947ZM1285.72,249.14L1267.66,471.35L1260.02,565.337L1380.03,565.337L1372.49,472.64L1354.3,248.86L1350.32,199.914L1350.03,196.263L1290.02,196.263L1289.6,201.498L1285.72,249.14Z" style="stroke:black;stroke-width:1px;"/>
    </g>
</svg>
